<?xml version="1.0" encoding="UTF-8"?>
<svg xmlns="http://www.w3.org/2000/svg" xmlns:xlink="http://www.w3.org/1999/xlink" width="100.095" height="110.384" viewBox="0 0 100.095 110.384">
<defs>
<clipPath id="clip-0">
<path clip-rule="nonzero" d="M 62 22 L 99.199219 22 L 99.199219 62 L 62 62 Z M 62 22 "/>
</clipPath>
</defs>
<path fill="none" stroke-width="7.77095" stroke-linecap="round" stroke-linejoin="round" stroke="rgb(7.058716%, 23.136902%, 42.74292%)" stroke-opacity="1" stroke-miterlimit="10" d="M 35.038375 58.315833 C 24.750882 77.668932 0.719142 85.016015 -18.630015 74.724581 C -37.983114 64.437089 -45.330197 40.405348 -35.038763 21.052249 C -24.75127 1.703092 -0.71953 -5.643991 18.629627 4.643502 C 25.610144 8.356459 31.329359 14.071732 35.038375 21.052249 " transform="matrix(0.99104, 0, 0, -0.99104, 54.697458, 94.215175)"/>
<path fill="none" stroke-width="3.13826" stroke-linecap="round" stroke-linejoin="round" stroke="rgb(85.096741%, 63.526917%, 17.254639%)" stroke-opacity="1" stroke-miterlimit="10" d="M 0.00177685 0.000334695 L 26.934511 51.737356 " transform="matrix(0.99104, 0, 0, -0.99104, 54.697458, 94.215175)"/>
<path fill-rule="nonzero" fill="rgb(85.096741%, 63.526917%, 17.254639%)" fill-opacity="1" d="M 82.972656 39.898438 C 82.671875 40.214844 81.199219 41.539062 79.996094 42.214844 L 82.78125 43.667969 C 82.648438 42.292969 82.886719 40.328125 82.972656 39.898438 Z M 82.972656 39.898438 "/>
<g clip-path="url(#clip-0)">
<path fill="none" stroke-width="1.27519" stroke-linecap="round" stroke-linejoin="miter" stroke="rgb(85.096741%, 63.526917%, 17.254639%)" stroke-opacity="1" stroke-miterlimit="10" d="M 3.461255 0.000332002 C 3.037896 0.122127 1.166427 0.82326 0.000951161 1.585278 L -0.00197682 -1.584752 C 1.166879 -0.825194 3.036606 -0.122959 3.461255 0.000332002 Z M 3.461255 0.000332002 " transform="matrix(0.457583, -0.879012, -0.879012, -0.457583, 81.389137, 42.941076)"/>
</g>
<path fill="none" stroke-width="2.73976" stroke-linecap="round" stroke-linejoin="round" stroke="rgb(11.764526%, 53.33252%, 65.879822%)" stroke-opacity="1" stroke-miterlimit="10" d="M 0.00177685 0.000334695 L 14.274195 61.823829 " transform="matrix(0.99104, 0, 0, -0.99104, 54.697458, 94.215175)"/>
<path fill-rule="nonzero" fill="rgb(11.764526%, 53.33252%, 65.879822%)" fill-opacity="1" stroke-width="1.19551" stroke-linecap="round" stroke-linejoin="miter" stroke="rgb(11.764526%, 53.33252%, 65.879822%)" stroke-opacity="1" stroke-miterlimit="10" d="M 3.225403 -0.00108088 C 2.830686 0.11411 1.086948 0.763352 -0.00180424 1.46671 L -0.000393882 -1.465829 C 1.087067 -0.761711 2.830409 -0.112493 3.225403 -0.00108088 Z M 3.225403 -0.00108088 " transform="matrix(0.222915, -0.965619, -0.965619, -0.222915, 68.842467, 32.946302)"/>
<path fill-rule="nonzero" fill="rgb(100%, 100%, 100%)" fill-opacity="1" d="M 58.941406 94.214844 C 58.941406 91.871094 57.042969 89.96875 54.699219 89.96875 C 52.351562 89.96875 50.453125 91.871094 50.453125 94.214844 C 50.453125 96.558594 52.351562 98.460938 54.699219 98.460938 C 57.042969 98.460938 58.941406 96.558594 58.941406 94.214844 Z M 58.941406 94.214844 "/>
<path fill-rule="nonzero" fill="rgb(7.058716%, 23.136902%, 42.74292%)" fill-opacity="1" d="M 57.414062 94.214844 C 57.414062 92.714844 56.195312 91.5 54.699219 91.5 C 53.199219 91.5 51.980469 92.714844 51.980469 94.214844 C 51.980469 95.714844 53.199219 96.929688 54.699219 96.929688 C 56.195312 96.929688 57.414062 95.714844 57.414062 94.214844 Z M 57.414062 94.214844 "/>
<path fill-rule="nonzero" fill="rgb(100%, 100%, 100%)" fill-opacity="1" d="M 58.054688 54.886719 C 58.054688 53.03125 56.550781 51.527344 54.699219 51.527344 C 52.84375 51.527344 51.339844 53.03125 51.339844 54.886719 C 51.339844 56.738281 52.84375 58.242188 54.699219 58.242188 C 56.550781 58.242188 58.054688 56.738281 58.054688 54.886719 Z M 58.054688 54.886719 "/>
<path fill-rule="nonzero" fill="rgb(7.058716%, 23.136902%, 42.74292%)" fill-opacity="1" d="M 56.722656 54.886719 C 56.722656 53.765625 55.816406 52.863281 54.699219 52.863281 C 53.578125 52.863281 52.671875 53.765625 52.671875 54.886719 C 52.671875 56.003906 53.578125 56.910156 54.699219 56.910156 C 55.816406 56.910156 56.722656 56.003906 56.722656 54.886719 Z M 56.722656 54.886719 "/>
<path fill-rule="nonzero" fill="rgb(100%, 100%, 100%)" fill-opacity="1" d="M 91.359375 32.328125 C 91.359375 29.875 89.367188 27.882812 86.914062 27.882812 C 84.460938 27.882812 82.472656 29.875 82.472656 32.328125 C 82.472656 34.78125 84.460938 36.769531 86.914062 36.769531 C 89.367188 36.769531 91.359375 34.78125 91.359375 32.328125 Z M 91.359375 32.328125 "/>
<path fill-rule="nonzero" fill="rgb(85.096741%, 63.526917%, 17.254639%)" fill-opacity="1" d="M 89.875 32.328125 C 89.875 30.691406 88.550781 29.363281 86.914062 29.363281 C 85.277344 29.363281 83.953125 30.691406 83.953125 32.328125 C 83.953125 33.964844 85.277344 35.289062 86.914062 35.289062 C 88.550781 35.289062 89.875 33.964844 89.875 32.328125 Z M 89.875 32.328125 "/>
<path fill-rule="nonzero" fill="rgb(100%, 100%, 100%)" fill-opacity="1" d="M 76.382812 19.535156 C 76.382812 17.082031 74.390625 15.09375 71.9375 15.09375 C 69.484375 15.09375 67.496094 17.082031 67.496094 19.535156 C 67.496094 21.992188 69.484375 23.980469 71.9375 23.980469 C 74.390625 23.980469 76.382812 21.992188 76.382812 19.535156 Z M 76.382812 19.535156 "/>
<path fill-rule="nonzero" fill="rgb(11.764526%, 53.33252%, 65.879822%)" fill-opacity="1" d="M 74.898438 19.535156 C 74.898438 17.902344 73.574219 16.574219 71.9375 16.574219 C 70.300781 16.574219 68.976562 17.902344 68.976562 19.535156 C 68.976562 21.171875 70.300781 22.5 71.9375 22.5 C 73.574219 22.5 74.898438 21.171875 74.898438 19.535156 Z M 74.898438 19.535156 "/>
</svg>
